<?xml version="1.0" standalone="no"?>
<!DOCTYPE svg PUBLIC "-//W3C//DTD SVG 20010904//EN"
 "http://www.w3.org/TR/2001/REC-SVG-20010904/DTD/svg10.dtd">
<svg version="1.0" xmlns="http://www.w3.org/2000/svg"
 width="700.000000pt" height="700.000000pt" viewBox="0 0 700.000000 700.000000"
 preserveAspectRatio="xMidYMid meet">
<metadata>
Created by potrace 1.11, written by Peter Selinger 2001-2013
</metadata>
<g transform="translate(0.000000,700.000000) scale(0.100000,-0.100000)"
fill="#000000" stroke="none">
<path d="M0 3500 l0 -3500 3500 0 3500 0 0 3500 0 3500 -3500 0 -3500 0 0
-3500z m6906 1 l-1 -3406 -3402 -1 c-1872 0 -3404 2 -3405 5 -3 14 -5 6777 -2
6792 4 14 334 15 3407 15 l3403 0 0 -3405z"/>
<path d="M4781 4869 c-37 -79 -70 -107 -162 -136 -47 -14 -59 -22 -59 -39 0
-53 -56 -231 -155 -494 -141 -377 -329 -866 -355 -925 -12 -27 -126 -307 -152
-373 -30 -75 -32 -59 -3 25 96 285 95 662 -4 961 -165 502 -581 813 -1206 903
-218 31 -663 32 -875 2 -25 -4 -231 -6 -458 -5 -459 2 -472 0 -472 -57 0 -16
7 -34 15 -41 8 -6 62 -23 120 -36 214 -48 284 -106 303 -251 10 -74 7 -2145
-3 -2198 -9 -52 -38 -108 -72 -140 -41 -39 -100 -63 -226 -92 -61 -14 -118
-30 -124 -36 -7 -5 -13 -22 -13 -37 0 -22 7 -30 32 -41 39 -16 178 -18 350 -4
186 15 487 12 938 -11 251 -13 382 -7 532 26 434 95 785 351 1026 749 36 58
62 99 59 91 -22 -62 -181 -421 -202 -455 -64 -111 -157 -182 -312 -240 -150
-55 -182 -80 -168 -125 13 -41 160 -56 325 -34 25 4 218 7 430 8 212 2 395 6
408 10 12 4 27 16 32 27 18 32 -26 64 -126 95 -109 32 -147 51 -201 98 -71 63
-87 134 -57 250 9 33 17 68 19 77 13 65 141 472 160 509 28 55 11 53 494 53
246 0 464 -3 484 -7 42 -8 43 -11 110 -246 101 -353 130 -507 108 -572 -22
-68 -113 -126 -226 -144 -112 -18 -189 -59 -183 -98 6 -42 32 -45 479 -50 233
-3 442 -7 464 -10 89 -11 360 -10 383 2 61 34 -20 118 -130 136 -208 34 -318
129 -411 356 -82 199 -857 2521 -857 2567 0 6 -6 13 -13 16 -10 4 -25 -18 -46
-64z m-2278 -210 c429 -87 779 -376 938 -778 29 -70 55 -156 65 -211 2 -14 7
-31 10 -39 18 -52 26 -434 11 -536 -15 -101 -19 -121 -33 -175 -8 -30 -17 -62
-19 -70 -24 -93 -110 -275 -177 -373 -38 -56 -192 -218 -243 -257 -141 -106
-331 -185 -516 -213 -137 -22 -356 -15 -499 15 -30 7 -57 12 -60 13 -3 0 -23
7 -45 14 -120 40 -187 100 -227 200 l-22 56 -1 1078 c-2 1005 -1 1081 16 1130
11 33 30 63 52 82 45 39 136 71 212 74 33 2 61 4 63 5 1 2 89 3 195 3 144 0
214 -4 280 -18z m2210 -389 c14 -41 50 -156 82 -255 31 -99 60 -189 64 -200 5
-11 30 -87 56 -170 26 -82 65 -206 87 -275 61 -189 67 -217 55 -229 -8 -8
-140 -11 -423 -11 -395 0 -412 1 -417 19 -2 10 20 86 50 167 146 395 275 741
282 759 5 11 23 61 41 110 57 159 71 188 85 173 7 -7 24 -47 38 -88z m-880
-1525 c-3 -9 -8 -14 -10 -11 -3 3 -2 9 2 15 9 16 15 13 8 -4z"/>
</g>
</svg>
